<mxfile host="Electron" agent="Mozilla/5.0 (Macintosh; Intel Mac OS X 10_15_7) AppleWebKit/537.36 (KHTML, like Gecko) draw.io/24.7.17 Chrome/128.0.6613.36 Electron/32.0.1 Safari/537.36" version="24.7.17">
  <diagram name="Page-1" id="_azvSOpEWx2MpZUjSgOs">
    <mxGraphModel dx="954" dy="629" grid="1" gridSize="10" guides="1" tooltips="1" connect="1" arrows="1" fold="1" page="1" pageScale="1" pageWidth="3000" pageHeight="3000" math="1" shadow="0">
      <root>
        <mxCell id="0" />
        <mxCell id="1" parent="0" />
        <mxCell id="TvmriOu33BJkG4EPpzRk-1" value="" style="rounded=1;whiteSpace=wrap;html=1;dashed=1;" parent="1" vertex="1">
          <mxGeometry x="120" y="890" width="380" height="250" as="geometry" />
        </mxCell>
        <mxCell id="TvmriOu33BJkG4EPpzRk-2" value="Market Team" style="text;html=1;strokeColor=none;fillColor=default;align=center;verticalAlign=middle;whiteSpace=wrap;rounded=0;fontStyle=1" parent="1" vertex="1">
          <mxGeometry x="270" y="884" width="80" height="10" as="geometry" />
        </mxCell>
        <mxCell id="OSSuRpNg1WkkF5mXFveC-1" value="" style="shape=image;verticalLabelPosition=bottom;labelBackgroundColor=default;verticalAlign=top;aspect=fixed;imageAspect=0;image=data:image/png,iVBORw0KGgoAAAANSUhEUgAAAPoAAAD6CAYAAACI7Fo9AAAACXBIWXMAAA7EAAAOxAGVKw4bAAAIMUlEQVR4nO3dsYtlVx0H8DeSKvkbMkVAjOWmExdmFTKIqEWaxSVIwNkgLCSdAZEtthBit4ERyY4Ygqxsk0YJYQNmA2ObVGIkaDFpbZNKGEuF81ty3js39773vp9PeXj3vXNn+HLgy7n3HFyuLlfAfvva0hMAvnqCDgEEHQIIOgQQdAgg6BBA0CGAoEMAQYcAgg4BBB0CCDoEEHQIIOgQQNAhgKBDAEGHAIIOAQQdAgg6BBB0CCDoEEDQIYCgQwBBhwCCDgEEHQIIOgQQdAjwxNIT4MsdrA527sjby9XlwdJz4H+s6BBA0CGAoEMAQYcAB5ernet59sYulmxTU9rNw4oOAQQdAgg6BBB0CKCMm8lI8XZ4eLjx715cXGx8be/vjvxGRUE3PSs6BBB0CCDoEEDQIYAy7iswdfFWjZ2fn2/8fVV5NvK53mtHSjsF3RgrOgQQdAgg6BBA0CGAd8YNmrp46y3AevUWYCOfm7rwq1R/ZwVdPys6BBB0CCDoEEDQIYCdcYN6y7ipi7epHw0dMTLnkYJOGdfPig4BBB0CCDoEEHQIoIxbwxwHLgyVU//4UzP2RXHtk8Vv9H7u4Bs/7JrLyH2MUNDVrOgQQNAhgKBDAEGHAMq4NUxdxm178baLBZ0yrmZFhwCCDgEEHQIIOgRQxq1hjvfDVbapeNv2gk4ZV7OiQwBBhwCCDgEEHQIo49Yw9fvhKnevX1lvUv/n5OSkGZu6eDs7O9twdqvVqw8+7vqc98hNz4oOAQQdAgg6BBB0COA01QVVxVtVqPWqirLe7+st3kbmt1q139db0DHGig4BBB0CCDoEEHQIYGfcGqbeGff5+6fN2FPP39pgZo//vqlNPb/q++yMm54VHQIIOgQQdAgg6BBAGbeGN64/1/yxpt7Z9ejRo2bs2rVrzdjlZft/Ozhoe6iRgq4qynp/t/c+RlQ7C1958JEyrmBFhwCCDgEEHQIIOgTwmOpMend7HR0dNWOn//xRM1YVYHOofrea39Ez7X1U5jhhFSs6RBB0CCDoEEDQIYAybtAcj15WqgLsP7/4rBkbOcCh2nn2xK+e7p1il5FHekcOk0hjRYcAgg4BBB0CCDoE8JjqoKnfI/f3373WjD1740Yz9sn9++3nrl5txkZOTq0+98n5+cbz++ZPX2/GvB9uHlZ0CCDoEEDQIYCgQwBl3KDeMq5S7fbqLsAGirdeQwVd5/xGDoRQxvWzokMAQYcAgg4BBB0CeEx1QdUOsKo6q4qtSm/x9sbt283YK3fubPx91e62qnjzLrjlWNEhgKBDAEGHAIIOAeyMW8PILrhe1XvaTk5Ouq4d2QXXqyrZKtX73KY+ebZit1zNig4BBB0CCDoEEHQIoIxbQ1XGzXEaaFXQVY6Pj5uxan69qvt4+PBh17VTF2+9f2dlXM2KDgEEHQIIOgQQdAjgMdXHmGMX3NXi8dPz4v1rvcXW3eEZfbmRkq33fkdU/zcFnRUdIgg6BBB0CCDoEEAZtxo7EXVE7w66l77+Ytfn/v3Ll0em0+Wlj97s+txbn/6hGRvZMVi+X69zt5yCzooOEQQdAgg6BBB0CBBXxk1dvE1dMFWqx0+rXWa3X2gPZqg8/U5b2n32Ql/Jdqc46KHa3TZ1GddrjseGd5EVHQIIOgQQdAgg6BBgr98Zt03FW6+LP/6r63ersbKgK05O/fbPj5qxv/76w2ast3ir/n7l2I+facamNlLG7fNuOSs6BBB0CCDoEEDQIUDczrhtKt56C6v7t97uurb3/WvV6axVGddbvJXF4GvXNr52anbLWdEhgqBDAEGHAIIOAfamjBs5cGGpYqb3PWg3Tn/SjJ2//qgZq3bGVaef9t5v9X3VtdX8lirAev+maazoEEDQIYCgQwBBhwB7U8ZVliqEqgMXqt1o2/Qo59TKR2s7H8E9Oztrxqp30E1tnw96sKJDAEGHAIIOAQQdAux1GTdi6iKv91HOSrULbqndXuXjsdUuveox1c5HcJmeFR0CCDoEEHQIIOgQQBk3k+qRz9VpO1TtqttF1X1Uu9t6H61ljBUdAgg6BBB0CCDoEGCvy7il3gV35bm/NWPVqaa9hdXxxXEzNse99R4IUanuo7rf6u9S/f3e+nTjqbCyokMEQYcAgg4BBB0C7HUZt01Of/OtZuzJ6lHTH7RD5bvlOh9THdllVu7mK1TFYFW8/f7P15uxL8p3xrVlHGOs6BBA0CGAoEMAQYcAyrjHmHrnWfV9z3YWatWBBnOodq1NbakTVtNY0SGAoEMAQYcAgg4BDi5XzQGSO6k6CbNSnY7Ze+2Iu9evNGPVCatPPX+r6/vu3bs3PKep3Lx5s+tzn7/fviSvKhpfffDx8Jw2sS8np1as6BBA0CGAoEMAQYcAe1PGVaqSbakyrlIVdJWlyqkRS93byP9XGQfsNEGHAIIOAQQdAijj1riW7aeMq1nRIYCgQwBBhwCCDgH2uoyb2tQF3Tbt0ttFI8XqPhdvFSs6BBB0CCDoEEDQIYAybtBIeWaXXr+08mxqVnQIIOgQQNAhgKBDAKepDpq6UEsr3pRs87CiQwBBhwCCDgEEHQIo42ZSlU7fLYq378wwlw+KsTl+l+VY0SGAoEMAQYcAgg4BlHFb5s7PXt742ouLi2bs7N33mrHeYvDk+99rrj08PNx4frd/++bG1zLGig4BBB0CCDoEEHQI4J1xC6oKsDn8pbOMW2ouTM+KDgEEHQIIOgQQdAigjIMAVnQIIOgQQNAhgKBDAEGHAIIOAQQdAgg6BBB0CCDoEEDQIYCgQwBBhwCCDgH+C5NluP6jnBV0AAAAAElFTkSuQmCC;" parent="1" vertex="1">
          <mxGeometry x="205" y="940" width="70" height="70" as="geometry" />
        </mxCell>
        <mxCell id="OSSuRpNg1WkkF5mXFveC-2" value="" style="shape=image;verticalLabelPosition=bottom;labelBackgroundColor=default;verticalAlign=top;aspect=fixed;imageAspect=0;image=data:image/png,iVBORw0KGgoAAAANSUhEUgAAAPoAAAD6CAYAAACI7Fo9AAAACXBIWXMAAA7EAAAOxAGVKw4bAAAH8UlEQVR4nO3dz4tkVxkG4KoQRslA/oFgb0YYstFkEMZFw4CYwU1AXThbIQVqD4zIgBoXHdKLRAMTycB0FEpwOy5EyEY74qoFV/nhJkZcFbhzFUjQIJRLxfOJZ+rerls97/MsD111T93m5cDLuffM17P1DHi4PTL1BICzJ+gQQNAhgKBDAEGHAIIOAQQdAgg6BBB0CCDoEEDQIYCgQwBBhwCCDgEEHQIIOgQQdAgg6BBA0CGAoEMAQYcAgg4BBB0CCDoEEHQIIOgQQNAhgKBDAEGHAI9OPQH+v+P9+bk78vbgdD2feg78mxUdAgg6BBB0CCDoEEAZN6Hekm2xWDRjF/b2Nr7ux6tVM7Yqxj69v7/x9x3P+n6b0m47rOgQQNAhgKBDAEGHAMq4Lekt3q5fv775RToLugvVR4uxqmS7UBR01fdVBWJV+FWlnYJufFZ0CCDoEEDQIYCgQ4D5enbunoDceVXxdnB01P5hVZ4VhVVVilXK3XK9O+g6r1uVcWPP+fjwsBlT0A1jRYcAgg4BBB0CCDoEsDNuoN4db385PW3GysdAi3Kq2nlWlV1DrlEpH13t+uT4yoJTQdfNig4BBB0CCDoEEHQIoIw7A9UuuEHl2dg6d7KdnJw0Y73zWy6XzVjvfake1a3mQj8rOgQQdAgg6BBA0CGAx1QfQO8uuN7SqSqsGHb/7JarWdEhgKBDAEGHAIIOAeyMG6g6qKB651nl6y/c2/i6jxWPmn5UFFZT/V2vn794sxlTXI7Pig4BBB0CCDoEEHQIoIwbqHqvWlXQDSmTdr14G7ugq+6VR1eHsaJDAEGHAIIOAQQdAijjzkBVJvXughtS2lUl4NiF2tjzq+5LtVuOYazoEEDQIYCgQwBBhwDeGfcAet8Zd7M9l2EyH765+aOwF5/ZnVLsXue5Ft4ZV7OiQwBBhwCCDgEEHQLYGTfQP594uhh9uxlZr6cpPefzzbupXZpzdZ8f/Wt7n6lZ0SGAoEMAQYcAgg4BlHEPoCqEqneZze63JdHHf/59M/b8T3/ZjB0cHDRjx8fHzdidO3easdu3b7dzKVS75apdcNX39V6393e8/I2v/s95/qf6nXFdH2VmRYcIgg4BBB0CCDoEUMYNtFe8a63Xl596ohm7dOlSM3blkeeasd7ibWzVdav5Vb+j+r29htxnrOgQQdAhgKBDAEGHAMq4M/DajXYH3Scuty89+8f7m79crirA9j7z62bs1Y2vUJdnqz9+aePvu3r1ajNW3Zfq/jGMFR0CCDoEEHQIIOgQwAEOA929caXrBlaPWT753I9Gn89/W7//xsafnV9+dsSZ1N772feasZPO509v3X/LYQ2drOgQQNAhgKBDAEGHAHbGDVQVQr0FXfXutseqxzGrsdWq5xKzu4eHXX9X6S7yOuf3UTG26vwdirdhrOgQQNAhgKBDAEGHAHbGbUlV0FW75ap3o5UFXXWNonj77Ld+3PXZyruvf6cZu3V01IxVJVulKt6qXXCKt/FZ0SGAoEMAQYcAgg4B7IzbknIH3axvB91isdj4uteuXdv4s+++3o71Fm/L5bLr7xRv22FFhwCCDgEEHQIIOgSwM+4cGPJeut73r439fUq23WJFhwCCDgEEHQIIOgRQxj1Eeku7IZRs55MVHQIIOgQQdAgg6BBAGbdj5rP5xv+Qp377izGnUnrni1/b+LPr2VqRNxErOgQQdAgg6BBA0CGAMm5CQ4q36qCH3pNJq9Kut2Qbct2Kgm47rOgQQNAhgKBDAEGHAA5w2DG9ZVc11vvZd05eHXUuY3+W8VnRIYCgQwBBhwCCDgHsjNuS3l1w2yixjv7eHsJw+Mn2sIYhhvwOu+XGZ0WHAIIOAQQdAgg6BLAzbscMKd56C7DT09NRv69iF9xusaJDAEGHAIIOAQQdAijjzsAu7YKr7O/vN2PtXrnx9f7e6v7ZLTeMFR0CCDoEEHQIIOgQQBk3obF3wW2D3XLnkxUdAgg6BBB0CCDoEEAZtyW95dnDXFi5B9OxokMAQYcAgg4BBB0CKOPOwEs3v9+M/eDeD0e9xjYKq7Gv0ft91f2b3Rt1KnGs6BBA0CGAoEMAQYcAyrgzcPFvv2nGyoLud0VB917fNYbsMustxUbfyfZkO/TSF9r7Ut2/2ezlvmtQsqJDAEGHAIIOAQQdAijjtuQrV9ozHZ6/9UYzNr/8bNf3ncedcetftb/3T8XJrifbOE0ijBUdAgg6BBB0CCDoEGC+nnUd/MlAd2+0bdxisWj+7uIzN/u+8LufHzyn0bzyh64/+/DN9lnT5XLZjN26/5aTU0dmRYcAgg4BBB0CCDoEUMZNqCroKt++//ZZT2V0r914uuvvFG/bYUWHAIIOAQQdAgg6BFDGnQPz2XzUf9J6tm4KsG1cg+lY0SGAoEMAQYcAgg4BBB0CCDoEEHQIIOgQQNAhgKBDAEGHAIIOAQQdAgg6BHCa6o4Z+3HRqVS/w6Or07GiQwBBhwCCDgEEHQIo4ybUW7zt7e01Y6vVqhn7yeMvNmPLD9rTSiufm32qGVs83p72+s0PXth4fgq66VjRIYCgQwBBhwCCDgGUcTumKrbOo96Cju2wokMAQYcAgg4BBB0COE11QlM9krqN01SHzIXxWdEhgKBDAEGHAIIOAZRxEMCKDgEEHQIIOgQQdAgg6BBA0CGAoEMAQYcAgg4BBB0CCDoEEHQIIOgQQNAhwL8A7VYi/CpYn4cAAAAASUVORK5CYII=;" parent="1" vertex="1">
          <mxGeometry x="205" y="1070" width="70" height="70" as="geometry" />
        </mxCell>
        <mxCell id="OSSuRpNg1WkkF5mXFveC-3" value="News Analyst" style="text;html=1;strokeColor=none;fillColor=none;align=center;verticalAlign=middle;whiteSpace=wrap;rounded=0;" parent="1" vertex="1">
          <mxGeometry x="269.38" y="962.5" width="80" height="25" as="geometry" />
        </mxCell>
        <mxCell id="OSSuRpNg1WkkF5mXFveC-4" value="Market Factor Expert" style="text;html=1;strokeColor=none;fillColor=none;align=center;verticalAlign=middle;whiteSpace=wrap;rounded=0;" parent="1" vertex="1">
          <mxGeometry x="260" y="1090" width="98.75" height="30" as="geometry" />
        </mxCell>
        <mxCell id="xvMu9jXcR2X1ckhDevlX-2" style="edgeStyle=orthogonalEdgeStyle;rounded=1;orthogonalLoop=1;jettySize=auto;html=1;entryX=0;entryY=0.5;entryDx=0;entryDy=0;curved=0;endArrow=classicThin;endFill=1;" parent="1" source="OSSuRpNg1WkkF5mXFveC-5" target="OSSuRpNg1WkkF5mXFveC-23" edge="1">
          <mxGeometry relative="1" as="geometry" />
        </mxCell>
        <mxCell id="OSSuRpNg1WkkF5mXFveC-5" value="Market&amp;nbsp;&lt;span style=&quot;font-family: Calibri, sans-serif; text-align: left; background-color: initial;&quot;&gt;trend:&amp;nbsp;&lt;/span&gt;&lt;font style=&quot;font-family: Calibri, sans-serif; text-align: left; background-color: rgb(204, 255, 204);&quot;&gt;Rise&lt;/font&gt;&lt;br&gt;&lt;p style=&quot;border-color: var(--border-color); text-align: left; margin: 0cm; font-family: Calibri, sans-serif;&quot; class=&quot;MsoNormal&quot;&gt;&lt;font style=&quot;border-color: var(--border-color);&quot;&gt;Explanation:&amp;nbsp;&lt;/font&gt;&lt;span style=&quot;border-color: var(--border-color); background-color: initial;&quot;&gt;...&lt;/span&gt;&lt;/p&gt;" style="shape=callout;whiteSpace=wrap;html=1;perimeter=calloutPerimeter;" parent="1" vertex="1">
          <mxGeometry x="205" y="1030" width="110" height="70" as="geometry" />
        </mxCell>
        <mxCell id="xvMu9jXcR2X1ckhDevlX-1" style="edgeStyle=orthogonalEdgeStyle;rounded=1;orthogonalLoop=1;jettySize=auto;html=1;exitX=0;exitY=0;exitDx=110;exitDy=20;exitPerimeter=0;entryX=0;entryY=0.5;entryDx=0;entryDy=0;curved=0;endArrow=classicThin;endFill=1;" parent="1" source="OSSuRpNg1WkkF5mXFveC-7" target="OSSuRpNg1WkkF5mXFveC-23" edge="1">
          <mxGeometry relative="1" as="geometry" />
        </mxCell>
        <mxCell id="OSSuRpNg1WkkF5mXFveC-7" value="&lt;p style=&quot;border-color: var(--border-color); text-align: left; margin: 0cm; font-family: Calibri, sans-serif;&quot; class=&quot;MsoNormal&quot;&gt;&lt;font style=&quot;border-color: var(--border-color);&quot;&gt;Market trend:&amp;nbsp;&lt;span style=&quot;background-color: rgb(255, 0, 0);&quot;&gt;Fall&lt;/span&gt;&lt;/font&gt;&lt;/p&gt;&lt;p style=&quot;border-color: var(--border-color); text-align: left; margin: 0cm; font-family: Calibri, sans-serif;&quot; class=&quot;MsoNormal&quot;&gt;&lt;font style=&quot;border-color: var(--border-color);&quot;&gt;Explanation:&amp;nbsp;&lt;/font&gt;&lt;span style=&quot;border-color: var(--border-color); background-color: initial;&quot;&gt;...&lt;/span&gt;&lt;/p&gt;" style="shape=callout;whiteSpace=wrap;html=1;perimeter=calloutPerimeter;" parent="1" vertex="1">
          <mxGeometry x="205" y="900" width="110" height="70" as="geometry" />
        </mxCell>
        <mxCell id="OSSuRpNg1WkkF5mXFveC-23" value="&lt;p style=&quot;border-color: var(--border-color); text-align: left; margin: 0cm; font-family: Calibri, sans-serif;&quot; class=&quot;MsoNormal&quot;&gt;&lt;font style=&quot;border-color: var(--border-color);&quot;&gt;Market trend:&amp;nbsp;&lt;span style=&quot;background-color: rgb(255, 102, 102);&quot;&gt;Fall&lt;/span&gt;&lt;/font&gt;&lt;/p&gt;&lt;div&gt;&lt;font style=&quot;border-color: var(--border-color);&quot;&gt;&lt;span style=&quot;border-color: var(--border-color);&quot;&gt;&lt;font style=&quot;background-color: rgb(251, 251, 251); border-color: var(--border-color); font-family: Calibri, sans-serif; text-align: left;&quot;&gt;Explanation:&amp;nbsp;&lt;/font&gt;...&lt;br&gt;&lt;/span&gt;&lt;/font&gt;&lt;/div&gt;" style="rounded=0;whiteSpace=wrap;html=1;" parent="1" vertex="1">
          <mxGeometry x="380" y="977" width="110" height="40" as="geometry" />
        </mxCell>
        <mxCell id="TP90nRAnJldu8gQZzBjl-1" value="Probability of &quot;Rise&quot;" style="text;html=1;strokeColor=none;fillColor=none;align=center;verticalAlign=middle;whiteSpace=wrap;rounded=0;rotation=270;fontSize=10;" parent="1" vertex="1">
          <mxGeometry x="120" y="1000" width="130" height="25" as="geometry" />
        </mxCell>
        <mxCell id="Hncg_f8tm0FkBmIIXys0-2" value="" style="shape=image;verticalLabelPosition=bottom;labelBackgroundColor=default;verticalAlign=top;aspect=fixed;imageAspect=0;image=data:image/png,iVBORw0KGgoAAAANSUhEUgAAAHgAAAKcCAYAAAAjLn5vAAAMTmlDQ1BJQ0MgUHJvZmlsZQAASImVVwdYU8kWnltSIQQIhCIl9CaISAkgJYQWekcQlZAECCXGhKBiRxdXcK2ICJYVXQVR7ICIDXXVlUWxu5bFgsrKurguduVNCKDLvvK9+b65899/zvxzzrkz994BgN7Fl0rzUE0A8iUFsriQANaklFQWqQfgAAN6YBzw4AvkUk5MTASAZbj9e3l9AyDK9qqjUuuf/f+1aAlFcgEASAzEGUK5IB/iQwDgrQKprAAAohTyFjMLpEpcDrGODDoIca0SZ6lwqxJnqPDlQZuEOC7EjwEgq/P5siwANPogzyoUZEEdOowWOEuEYgnE/hD75udPF0K8EGJbaAPnpCv12Rlf6WT9TTNjRJPPzxrBqlgGCzlQLJfm8Wf/n+n43yU/TzE8hw2s6tmy0DhlzDBvj3OnhyuxOsRvJRlR0RBrA4DiYuGgvRIzsxWhiSp71FYg58KcASbEE+V58bwhPk7IDwyH2AjiTEleVMSQTXGmOFhpA/OHVooLeAkQ60NcK5IHxQ/ZnJRNjxue90amjMsZ4p/xZYM+KPU/K3ITOSp9TDtbxBvSx5yKshOSIaZCHFgoToqCWAPiKHlufPiQTVpRNjdq2EamiFPGYgmxTCQJCVDpYxWZsuC4Iftd+fLh2LGT2WJe1BC+UpCdEKrKFfZYwB/0H8aC9YkknMRhHZF8UsRwLEJRYJAqdpwskiTGq3hcX1oQEKcai9tL82KG7PEAUV6IkjeHOEFeGD88trAALk6VPl4iLYhJUPmJV+Xww2JU/uD7QATggkDAAgpYM8B0kAPEHb1NvfBO1RMM+EAGsoAIOA4xwyOSB3sk8BoPisDvEImAfGRcwGCvCBRC/tMoVsmJRzjV1RFkDvUpVXLBE4jzQTjIg/eKQSXJiAdJ4DFkxP/wiA+rAMaQB6uy/9/zw+wXhgOZiCFGMTwjiz5sSQwiBhJDicFEO9wQ98W98Qh49YfVBWfjnsNxfLEnPCF0Eh4SrhO6CLeniYtlo7yMBF1QP3goPxlf5we3hppueADuA9WhMs7EDYEj7grn4eB+cGY3yHKH/FZmhTVK+28RfPWEhuwozhSUokfxp9iOHqlhr+E2oqLM9df5UfmaMZJv7kjP6Pm5X2VfCNvw0ZbYt9hB7Bx2CruAtWJNgIWdwJqxduyYEo+suMeDK254trhBf3Khzug18+XJKjMpd6537nH+qOorEM0qUG5G7nTpbJk4K7uAxYFfDBGLJxE4jWW5OLu4AaD8/qheb69iB78rCLP9C7f4VwB8TgwMDBz9woWdAGC/B3wlHPnC2bLhp0UNgPNHBApZoYrDlRcCfHPQ4e4zACbAAtjCeFyAO/AG/iAIhIFokABSwFTofTZc5zIwE8wFi0AJKAOrwDpQBbaAbaAW7AEHQBNoBafAj+AiuAyugztw9XSD56APvAYfEAQhITSEgRggpogV4oC4IGzEFwlCIpA4JAVJR7IQCaJA5iKLkTJkDVKFbEXqkP3IEeQUcgHpRG4jD5Ae5E/kPYqh6qgOaoxao+NQNspBw9EEdAqahc5Ai9Al6Aq0Eq1Bd6ON6Cn0Inod7UKfo/0YwNQwJmaGOWJsjItFY6lYJibD5mOlWAVWgzVgLfA5X8W6sF7sHU7EGTgLd4QrOBRPxAX4DHw+vhyvwmvxRvwMfhV/gPfhnwk0ghHBgeBF4BEmEbIIMwklhArCDsJhwlm4l7oJr4lEIpNoQ/SAezGFmEOcQ1xO3ETcSzxJ7CQ+IvaTSCQDkgPJhxRN4pMKSCWkDaTdpBOkK6Ru0luyGtmU7EIOJqeSJeRicgV5F/k4+Qr5KfkDRZNiRfGiRFOElNmUlZTtlBbKJUo35QNVi2pD9aEmUHOoi6iV1AbqWepd6is1NTVzNU+1WDWx2kK1SrV9aufVHqi9U9dWt1fnqqepK9RXqO9UP6l+W/0VjUazpvnTUmkFtBW0Otpp2n3aWw2GhpMGT0OosUCjWqNR44rGCzqFbkXn0KfSi+gV9IP0S/ReTYqmtSZXk685X7Na84jmTc1+LYbWeK1orXyt5Vq7tC5oPdMmaVtrB2kLtZdob9M+rf2IgTEsGFyGgLGYsZ1xltGtQ9Sx0eHp5OiU6ezR6dDp09XWddVN0p2lW617TLeLiTGtmTxmHnMl8wDzBvO9nrEeR0+kt0yvQe+K3hv9Mfr++iL9Uv29+tf13xuwDIIMcg1WGzQZ3DPEDe0NYw1nGm42PGvYO0ZnjPcYwZjSMQfG/GKEGtkbxRnNMdpm1G7Ub2xiHGIsNd5gfNq414Rp4m+SY1Juctykx5Rh6msqNi03PWH6G0uXxWHlsSpZZ1h9ZkZmoWYKs61mHWYfzG3ME82Lzfea37OgWrAtMi3KLdos+ixNLSMt51rWW/5iRbFiW2Vbrbc6Z/XG2sY62XqpdZP1Mxt9G55NkU29zV1bmq2f7QzbGttrdkQ7tl2u3Sa7y/aovZt9tn21/SUH1MHdQeywyaFzLGGs51jJ2JqxNx3VHTmOhY71jg+cmE4RTsVOTU4vxlmOSx23ety5cZ+d3ZzznLc73xmvPT5sfPH4lvF/uti7CFyqXa5NoE0InrBgQvOEl64OriLXza633BhukW5L3drcPrl7uMvcG9x7PCw90j02etxk67Bj2MvZ5z0JngGeCzxbPd95uXsVeB3w+sPb0TvXe5f3s4k2E0UTt0985GPuw/fZ6tPly/JN9/3et8vPzI/vV+P30N/CX+i/w/8px46Tw9nNeRHgHCALOBzwhuvFncc9GYgFhgSWBnYEaQclBlUF3Q82D84Krg/uC3ELmRNyMpQQGh66OvQmz5gn4NXx+sI8wuaFnQlXD48Prwp/GGEfIYtoiUQjwyLXRt6NsoqSRDVFg2he9NroezE2MTNijsYSY2Niq2OfxI2Pmxt3Lp4RPy1+V/zrhICElQl3Em0TFYltSfSktKS6pDfJgclrkrsmjZs0b9LFFMMUcUpzKik1KXVHav/koMnrJnenuaWVpN2YYjNl1pQLUw2n5k09No0+jT/tYDohPTl9V/pHfjS/ht+fwcvYmNEn4ArWC54L/YXlwh6Rj2iN6GmmT+aazGdZPllrs3qy/bIrsnvFXHGV+GVOaM6WnDe50bk7cwfykvP25pPz0/OPSLQluZIz002mz5reKXWQlki7ZnjNWDejTxYu2yFH5FPkzQU68Ee/XWGr+EbxoNC3sLrw7cykmQdnac2SzGqfbT972eynRcFFP8zB5wjmtM01m7to7oN5nHlb5yPzM+a3LbBYsGRB98KQhbWLqItyF/1c7Fy8pvivxcmLW5YYL1m45NE3Id/Ul2iUyEpuLvVeuuVb/Fvxtx3LJizbsOxzqbD0pzLnsoqyj8sFy3/6bvx3ld8NrMhc0bHSfeXmVcRVklU3Vvutrl2jtaZozaO1kWsby1nlpeV/rZu27kKFa8WW9dT1ivVdlRGVzRssN6za8LEqu+p6dUD13o1GG5dtfLNJuOnKZv/NDVuMt5Rtef+9+PtbW0O2NtZY11RsI24r3PZke9L2cz+wf6jbYbijbMennZKdXbVxtWfqPOrqdhntWlmP1ivqe3an7b68J3BPc4Njw9a9zL1l+8A+xb7f9qfvv3Eg/EDbQfbBhkNWhzYeZhwubUQaZzf2NWU3dTWnNHceCTvS1uLdcvio09GdrWat1cd0j608Tj2+5PjAiaIT/SelJ3tPZZ161Dat7c7pSaevnYk903E2/Oz5H4N/PH2Oc+7EeZ/zrRe8Lhz5if1T00X3i43tbu2Hf3b7+XCHe0fjJY9LzZc9L7d0Tuw8fsXvyqmrgVd/vMa7dvF61PXOG4k3bt1Mu9l1S3jr2e282y9/Kfzlw52Fdwl3S+9p3qu4b3S/5le7X/d2uXcdexD4oP1h/MM7jwSPnj+WP/7YveQJ7UnFU9Ondc9cnrX2BPdc/m3yb93Ppc8/9Jb8rvX7xhe2Lw794f9He9+kvu6XspcDfy5/ZfBq51+uf7X1x/Tff53/+sOb0rcGb2vfsd+de5/8/umHmR9JHys/2X1q+Rz++e5A/sCAlC/jD/4KYEB5tMkE4M+dANBSAGDAcyN1sup8OFgQ1Zl2EIH/hFVnyMHiDkAD/KeP7YV/NzcB2LcdAGuoT08DIIYGQIInQCdMGKnDZ7nBc6eyEOHZ4PvQTxn5GeDfFNWZ9Cu/R7dAqeoKRrf/AsdJgzAu4MRcAAAAimVYSWZNTQAqAAAACAAEARoABQAAAAEAAAA+ARsABQAAAAEAAABGASgAAwAAAAEAAgAAh2kABAAAAAEAAABOAAAAAAAAAJAAAAABAAAAkAAAAAEAA5KGAAcAAAASAAAAeKACAAQAAAABAAAAeKADAAQAAAABAAACnAAAAABBU0NJSQAAAFNjcmVlbnNob3TwhTiRAAAACXBIWXMAABYlAAAWJQFJUiTwAAAB1mlUWHRYTUw6Y29tLmFkb2JlLnhtcAAAAAAAPHg6eG1wbWV0YSB4bWxuczp4PSJhZG9iZTpuczptZXRhLyIgeDp4bXB0az0iWE1QIENvcmUgNi4wLjAiPgogICA8cmRmOlJERiB4bWxuczpyZGY9Imh0dHA6Ly93d3cudzMub3JnLzE5OTkvMDIvMjItcmRmLXN5bnRheC1ucyMiPgogICAgICA8cmRmOkRlc2NyaXB0aW9uIHJkZjphYm91dD0iIgogICAgICAgICAgICB4bWxuczpleGlmPSJodHRwOi8vbnMuYWRvYmUuY29tL2V4aWYvMS4wLyI+CiAgICAgICAgIDxleGlmOlBpeGVsWURpbWVuc2lvbj42Njg8L2V4aWY6UGl4ZWxZRGltZW5zaW9uPgogICAgICAgICA8ZXhpZjpQaXhlbFhEaW1lbnNpb24+MTIwPC9leGlmOlBpeGVsWERpbWVuc2lvbj4KICAgICAgICAgPGV4aWY6VXNlckNvbW1lbnQ+U2NyZWVuc2hvdDwvZXhpZjpVc2VyQ29tbWVudD4KICAgICAgPC9yZGY6RGVzY3JpcHRpb24+CiAgIDwvcmRmOlJERj4KPC94OnhtcG1ldGE+Cu8ddogAAAAcaURPVAAAAAIAAAAAAAABTgAAACgAAAFOAAABTgAAKppigazCAAAqZklEQVR4AeydB5xTVdrGX+lgwYIU6b13pEhnBiywrig2lEX9bCii6CquiaBSVopmKOva6R0Ghj6hCwqCKE0QQUCKgPQBhun5zvNm7pDcJDPJ5J4Td+ZcfiHJLSd3zv88bzs3N9e5xEJ6ybM9cJ0GnGfZ8h+mAedtvqQBa8B5vAfy+J+nFawB5/EeyON/nlawBpzHeyCP/3lawRpwHu+BPP7naQVrwHm8B/L4n6cVrAHn8R4I8c87ffo0HT9+nPbs2cPP586do8TERLr++uupQ4cOVK9ePapQoQIVKFAg6JaTk5Ppzz//pF9++YW2bdtG58+fp6SkJG6zcuXK1KBBA6pevTqVLVs26DaNHbWCjZ4I8vnAgQO0a9cuWrduHeH12bNn6ffff6fChQtTv379qFu3btSkSRMqWLBgUC2mpaURBsnmzZv5sWnTJrpy5QqlpqZS0aJFqWLFilS/fn3q0qULNW/enIoVKxZ02zgBDTgoDNd2gsqg3p9//plSUlLo1ltvpbi4ODp48GCuAF+8eJHbGz9+PKu4SpUqbAVKly5NR48e5c/ZsmULPfnkk/TAAw9Q1apV6cYbb7x2Qjm80oBz6CDz5hMnThAeMNUww7fddht99NFHtGHDhlwBxmD59ttvafLkyTxYHn/8capVqxa3e/LkSVq9ejVNmzaNWrVqRZ07d6auXbvSHXfcYT6tgO814IBdE3iD+SKYgQMHUmxsbK4AL1q0iOLj42nnzp3Uvn17GjJkCBUpUoSuu+46wuesX7+evvjiC7p8+TKDHTBgANWtWzfwyZm2KAOcnp5OGRkZ/DB3kOmcLH1rfBY6zN+C9fCXUGMogZFnWwA8f/78XAGeOHEiLVu2jJvr2LEjvfDCC+zPjfZ37NhBS5YsYf+Mv2Xo0KHUtGlTY3OOz9IBGx189PhROnHyD0pLSSdXhrrLwAywxnmYe6REiRJsDuFLQ/Ftnu2EA9jhcNDSpUs5SoYJ7tWrFxUqVCir+d9++42+//57mjlzJvvosWPHsrk2/q6sHQO8kA4YqkWk+Omk/9L0OdMo/bKLXKnqACO6hUIREOFczEuNGjU4vYF5bNSokXlzUO/DATxixAhWaIsWLSgqKop69OjhFSUfOXKEoGKYaUTrCMbuuusur0GQ3UlKBwy46NzBw96l/0wcT2UalKQStxelAgWFyfRvNbM736C3wUpkpLvo3K5EyjhViM0aIlNz+oI0BGkNHoCdmyUcwMOGDaPFixczNAC+9957vc7x2LFjtHv3bvrkk084Up8wYQLvCz8dzCIdMPI5JO2DBw+mrxd8Ru2H16FKHW+jQkVFnigRcEaai9KS0mnT8P10eU0h+vDDD6ldu3acR3qaNwCHymEWPU1jMJ1n7KMBZwKeuPBz6jS6HlXuLAAXUwD4ajptfG8fXV5VmFMZBDHFixc3uPAzYBsBlid4r51yeBMO4DFjxrCJRgUMPrhnz55eA+3QoUO0detWmjp1Kqdn48aNo9atWwcdECpVMAB3cdSnylGlqLBswMLPpwoFb7D/QpdXFiYEJ506dfJRcA7sgtocDuBPP/2Ug6ybb76Zz69v375egPfu3cu5MFIpVLhGjx7NFa2gTkzsFCHAtysAnPE/AXju3Lm0YsUKrlqhlj1o0CCvNAmly+nTp/N2DII333yTa9N/WcBRrODb5ZvoVBG9Zyr4koUKRj6PwBFxBZ6x2Gw2NrNPP/00m9mGDRtysQK+HfXkCxcu0OHDh/kYBEeoVJUsWZKPRQqEYgYCrWrVqtHzzz9P5cuXpxtuuIGPW7t2LVe5MOnQrFkzTqPwOthFuYL/1wFj5gemEqXKq1evcj/Dj65atYoeeeQRatOmDdWuXZsBIa9Gfo1y5IIFC3hiAmAxEGrWrMnHYrICM0jvv/8+DwD44bZt21KlSpVo37595HQ6adasWfTss88SypiYeICSg10iCjhAcSnYc892v3RJCkZ9GB0PxSFHxbJ9+3aeOsSUXpkyZRgAAELJ8PvYb8aMGVyoAPD+/ftnlRthCTD9iGIHJjBQ58aMEdSP9BIBIALD7t27cynzlltuYauQ7R/vsTFigOUHWdd8sJUmGjM8AIoJgP3793t0pfdLKA0TBPfffz9PB2JAQK1QcJ8+fbxyblgCFDFgrleuXEmnTp3iOWZYALSDIkzjxo15Jsn7U3J+pwHn3Edee0BxKPxDyZjoD7TAh950001UqlQp9tUw6agJINcuV66cV7qGChvaxdQh5oahXPh67IsLCWCS0Z45xQv02Z7r8zDga2nSpZWFpKZJnh36V3sdAcANRB6sNk3SgCUOO89SJQodUQ4NWGJ3+zStFezTJXlrhQact3j6/DUasE+X5K0VGnDe4unz10QYsLwJ4QxRyXLPJu0lHUX7cLduhW8U3VBxmqQBS71ASgO2Tiy5aSkCJrohVRGFDulXdGRONnxj1wpWquBoh9tEa8C50WPoxyhXsCdgFdOFWsGBrggPfbD4PcLsgw3AqqYLNWAN2O/AzCsrI2ai5SvYPV34jX2PzoNljlb/Jrq0sqsq3Sa6oJ4PlgVZA5bVs8G1GwET3UhpHrye82Ct4OCGQy728lUwAJfmQoeaNGkPJazUgHOBLrhDAgGWH2S5JxsQZGnAwbHK1V4acK66zbKDFPvgLyja4fbBahScQd/Yf9YKtmy4+GnIW8EqAV/LgxNWFtBpkh82lqzyD1hlHgwfrAFbAtNfIxqwv15Rty5CPlgrWBVipYAnxQkf/LFnHizvmizj24Xr3xVBllObaGkDytNEM2BHY6rSRZGCk9NpPaJoDVgaX/5GHb45h7vsaMDy+jlQy+pNtFZwIBZS1mvAUrr1r9NohAHLC7L4wnf2wbu1D5Y53vwFWVW7lFFz2awAvI6DrOt0JUsWZDPgro4mIop2A5Y+XZip4ItODVgWX58o2gCsZLJBA1Z7pzukSRqwNC35bVh5kOUNWHaQlSYKHbtJm2i/7K1ZGcgHFy4m7moujy9di6J3acDWoPTfii/gpmRE0bKDrFT2wRqwsi+fuX2wG7DsICtd3E44jdMkACadJvnXX/hrzQru5mjGaZJswIaJXmfXgJUqWAMOXzShtKA8itaAQ8ET/r4RAVy1S1lRqizAv+4V/p/gvwVM+CPIWmffqX2w/y6yZq2vD27OUbRsH2wEWWvtOzRga1D6b8Ub8JcEEw0FywZ8LcjaSRecLh1F+8cT/loNOPw+DKcFxT74S7o7U8FKbsIifPBa4YO1gsMZIjkca1bw3Q74YDVBFgod8MEacA6QwtkcCLB8Hyy+usKAt2vA4QDM6VhfwC2UBlluBWfoICsnULndrgHntuesOS4CQVYLqsY+WPKPU+JWhsJEr2EfrBVszXDx04pZwfc4YKLLKalkuQHDB2vAftBYsyoQYDVBVppQsAascDbpSzIUrOaKDg1YuQ/WgK2xjMG2EhHA1dgHy78my+2Df6Lz2gcHOx5C38/XB98pomgEWQWlTxemJcNEa8BKffC9DgOwfAWjkuUGnK4LHaFrM7gjzAq+19GSFSw7yHJP+BsK1oCDo5WLvTwBT45DFA3Ad2TOB8u7MDo9VfwUu1DwavuPwgdrwLlAF9whgQGrMNFpGrC44bsyH+ytYA04OImEt5fSNAmA73W0yoyi5QM2TPQ5Z5oOssIbJ4GPNptoN2D4YPmAU0WaBB+sAQfmE/YWb8BfsYKriyBLRR7sBrxNAw6bYjYN+AJuTdcAZ3NgmJuM66JX2wE4VZvoMPsz4OEacMCuUbJBcZAFE+1WsJrpwnRaZf9BK1jmUDIr+D4GXD7TB8v7ZMNEa8BK8+Cv6D5HG/bBsqNoAEaaBMBnnSnaB8vSklnB3QXgal3KK0uTNGDFCtaAZUnJf7vKgywArh4FHywKHRKXjDRhopPSaaV9qzbREvvZ60Zok+O+ou6OuxiwEh+clKYBq51scAOuEVVBQSUrnVJZwVu0gtUquC3VyDTR0m+jlKXgZB1Fy4LsG0VrwLL62l+7yoOsHo62Snwwf8NfmGinHSZaK9gffEvWmRUMwG4fXEhcVWnJR/hthCtZbKK30BkN2G8fWbLSG/DXZABGFK0CsNP+vQZsCckAjZgB/40VXJHzYNmA04SC4xlwkg6yAvAJe7Uv4HbCRFdUcFUlCh0AvFkoWAMOG2SgBjwBT4n7mv7maC+CrApqatECsFMAPq0BB8IT/noNOPw+DKcFpWmSoWCYaPnXZLkrWW4FX9U+OJxRkt2x/hTs9sFyr6rk+WCRB8fbNwkTrQFnxyisbb6AO2QGWUiT5CXC+OpKKgdZGrCybza4TXQHqskmurCCPDhVK1jlbJIGHJYxzNXByoOs+x0dlZroFeyDE3WQlavhEcRBZh98v6MTm2g1E/7ptML+Lf3p1ICDQJW7XcyA/y4A14iqxJUsuUGWuOO7CLJW2L8TgK9oBecOX85HeQOeSH8XJrqmAIxrsiQG0WTMJmnACq+qnBKnAecsCWv3UBxkATB8MEy0GgUvZx+sTbS1w8ajNbOJfoABV5Y+2eCuZKXRMvtG7YM9eFj+0hdwZw8Fy69kLReAT+kgy3KuWQ36A1yLgyw1lSyY6FPOyzqKziJi8QsN2OIODbE55UFWTwdMtNsHy82D3ZMN8MFawSGOilB2Nyu4p6ML1coELPMHoo0ga6l9gwYcCrBQ9zUDftARpVjBG+ik85L2waGCC3Z/T8BTRaGjpwBcK6qK9DTJfeF7Gi21f2M54JSUFDp16hSdOHGCH3iPelGJEiWoTJkyVKVKFbrxxhupWLFiQXVTcnIynTx5kttEu3iflpZGhQsX5nZuvfVWqlChApUuXZrn0ENxbUp9sBtwNNUWJrpQMTVRtAzAFy5coG+++YbWrFlDq1evpvPnz1N6ejqVL1+eOnToQA8//DBVq1aNYQdD+OzZs7Ru3Tpuc8OGDYT3V69epRtuuIHbadq0KfXo0YPatGlDhQoVogIFCgTTLO+jAQfdVe4djx8/Trt376bY2Fg6ffo0lSpVikGg06FogIaSH3roIercuTMVLVqUChYUvzATYDl69Cjt2rWL5s+fTxcvXqRy5cpxe0WKFGElQ9G///47tW/fnh/NmjUjKDrYRTngBx3RSky0EWQtsa+31ER/++23rNolS5ZQ2bJl6YknnqDKlUVWIMzppk2bCApcu3YtDRgwgPr06cNmtXjx4gF54BhYgnnz5lHFihXpmWeeYRN/880305kzZ3jblClTWMktW7ak3r178+uADZo2KAY8iTwBh+JLTOed41vjmiw34ATLgqyvv/6ali5dyp/fqlUrevzxx9lP4m+BqV68eDGNGTOGunXrRt27d2ezCr8caMFAcTqdtGfPHmrRogW98sor3B4GDHw7BsDs2bNZ3WgHA6du3bqBmvNZHxHAtaOqKguyltjX0R/xF+njjz+mjh07cuDjObDwGg+YWM/15p5CEIXHiBEjaOHChXTXXXdRVFQUQ4RfxILty5Yt432gxubNm1OvXr2oatWq5uay3i9fvpxWrVpF27dv5/0HDhxIt9xyCxkmGr5+6tSpfKcEtPn8889TrVq1so7P6YVywA85uoogq4qyIAsKPr7iPI0cOZLatWtHMJeeIAEWgPDIzldmZIivwojIdtCgQQz42WefZZXCJ3oet3HjRoLKL1++zP70xRdfzFZxW7du5QBr1qxZVKNGDXrttdeoevXqBBONYAvWYsKECdSoUSNq27YtDyhE1MEu+QLwjmn7OUC54w5xE9RMtRkdhMi3QYMG1LBhw2yVBnN55coVstlsrFKA6Nq1K8PzjGq3bNlCM2fOJARPN910E0GRaDvQgiBq3759BFN97NgxtiQ4DsEZPg8D5dKlS3TPPfewBaoiUjBE18EuEQIs30QbQdZiYaI3fb4jK9jxhIFOgrlDtIsH0pFAC9IWpEeDBw9mkwolR0dHc8Dj2eaPP/7IEfHevXsZ0ttvv02NGzcO1Cz7WeTAK1asoPXr1xOCOLSHBwYV/G7t2rWzonLANQ/SgI2LDREA3E2YaDdgT1OZ3UnmZpsRZC22r6UDC/4gmEqYOfg2z89Fh6GAgAfMYqBFFmCodseOHexnExMTqU6dOmzaUShB0Pbrr7/Stm3bWL0YhMiFb7/99kCn6bNeOeBejruzAMusRRuVLAA+tuIcR7YoQqC65AnYUAv8qKcSzT2F6pJhohEYvf7666xgAPE8Dj4V/hS5KwbPG2+8ka2JhmrxwHGVKlWinj17cvp1/fXXU0JCAq+HH8b5IVh77rnn/tpBFgDXEQpWVckC4D+cFygmJoY6derEQZYZnidw8zbjPYIslF3feustiouLY4uAVAjm1zPI+u6772jSpElszmEVXnrpJapXr57RjM8zAigMGAROKGYg6kaKhHNCVH7gwAFOlZAnI+jC34F8OJhzxodFRMGRADx27FgGbFawT48HWIHOBuRhw4ZxFI3BAh989913Z/lE7ANfOmrUKPadgP/oo49mW5hA+oYAy4gFUAHz9LEHDx4kBG7Tpk3jWvW4ceMI+ben1QhwyrxaOeCH2URXk54HG0HWIvsaVnC4gI1O/Oyzz7iYAfOLtAWFDpQmscCEQ93Dhw/nwYTIF24Bvh0BGqAYEwh4xgJgRlUMaRwUjFQOVgFpGXwwAi/k14ioR48ezQWRvzDge4QPdgMO1sxwT4T4nxFkuQGft6yShTIkJhjwjMIDSpUwr1AdgqF1YtIAKn7hhRe4rIhtUCHMMFIfpGqAblS3YHrhYxF1I1pGe0jdEGRhUKCShbo3atzwwUi7sjP55m6KgILvFT5YjYLxzYZF9tVCwdYBPnz4MEe9c+fO5fwUs0aoPEFRhw4d4sAIphzKhoLhEqDATz/9lBA4oZgBsw1YWFDB2rx5M8XHx7MLQNCG9nAcIvcjR45wGRO5Okwz3AIGSbCLYsCT6WHHPZmA5U8XpiSlWg4Y8IxJAKgVETBmgaAwzAShhPnggw9yugMlwkqh1vzRRx9xVI06ct++falmzZrMCLkuZqFgghGg/fTTT9weonYMCFgJQMd0IVwCiiCGeQ8GsgYcTC+Z9klKSuJKFdSFdAjvEWDBLwMITC38LgBhwT4//PAD5+CY6qtfv35Wzo3jkP9C/ciJARvtYcAAZMmSJTnvRfnSqMQF63/x2RECXJ2K4H7R1+EU5CwIsmCi4+yrLDXRcs5WXqvKAT/iMHywOhN93HnOsiBLHgo5LSsFPC0OPvg+qstBlkgTpCs4lRWsAcsZPNyq50V3APyIozsDdn99VB5hI02CiT7mPKsVLIuxGfCjAnCdKPhg2Qp2X/i+0L5SA5YFF+36A1w3qgZXsmQXOpAmacCI0yUuGrDEzg2iaeVB1qOOHsIHGyZatg9OpQV2pzbRQQyEXO9iVvBjjr8JwCpNtJOOOs/oICvXBHM40B/gegzYPeeZw+G53pzGtzKEguM14Fz3YhAHegOeQo8rVjBM9FHnaa3gIFjlahcNOFfdZtlBioOsawp258Hyg6xYNtFawZaNGHNDvgq+n+pF1VSWB8faV2gTbYZi5Xsz4N4OA7CaIAuAjzj/1D7YSqiebfkC/rtyBWvAnkQsfq0BW9yhITanPMh6wmEoWK6JxmwSatHz7cu1iQ5xUIS0u6eCp8dNod6OB6h+VC1lQRYA/+48pX1wSNRC2NkM+AlHT/bBRYrhO0IhNBTirqhkuRW8TAMOse9C2t0/4Fo8HyxzutANOEWYaA1Y2XQhTLRbwRpwSCoJY2elQZYBGD4YJlruNVluEz3PvlSb6DAGSI6Hmk30k44HM4MsFVF0Cs0TJvqw86QOsnIklcsdvAFPJQBuwFG0/CArVaRJc+1LNOBcsgvqMDPgPqzg2kpMNADPYcAntIKDopWLnXwBPyQUDMC4qlJenmQUOubaF9MhpwacC3TBHeILuFcmYLk/TmnkwRqwwqsqp8dNpT4ODTg4aVizl+I0aSr9Iwuw/CALlaw5bKL/0D7YmvHi24rZRP/D8TA1FD64sORSpeGDZ9sXCR+sAfuSsWiNJ+AZwkS7AdcVgJEHW/QhfpoxrqoE4IPO41rBfvrIklVmwH0dj4ggq04mYHmE3QpOIQ1YYZAFBWvAlugm6EaUBlkz4qYx4IYKFOw20Sk0yx6nTXTQwyEXO3qb6Gn0FJvoupmFjlw0GOQhMNG4hcMs+0L6zXlM++Ag+y3k3XwBPyqiaDWAkSZpwEp9MBR8DbCKCX8NWAMO2Sr9Lx2gPMh62vFYlomWrWDMJs2wLxA++Kj2wbJGpdkHP+N4PBOwmis6Ztpj6YAGLAuv9z06kCa5AdfjKFq2glOSUkgDVuyD1QNeIBR8RJtoWRr2b6JVKlgDVnbZrNtE96ZGUfIBG7NJ0+3ztYJlqRfteit4Ov2fozc1FoCVTBcmp9J02zzar020PMSegGfGuQE3iqrPF93Jni5MSU4RgOcLwL9rHywLsS/gJ4SC3YClX/guAE9jBWvAsvh6mWgo+FnHk8IHA7DcC9/5ojtW8Dz61XlYK1gWYbOCNWBZPe2/XaWlSkPB6kx0qjDRc7WC/bO3Zq1Zwc85+ggf3EDJfHCKiKKn2uZowNag9N+KL+B/UJNo4YOLohYt8Zos8aNSmA8G4H3OQ9oH+8cT/loz4Ocd/6DG0VCw96+Ahv9J3i2kpQJwigYsStHKKlnwwRqw90CU/U55kAXATaIbqqlkCQVPsc3WJlrmKPI20TNYwQCs5iYsBuCD2gfLgmwG/IKjLytYHeBZ9ItTA5bF16uSNStuBr3geCoTsIJKljDRk20A/JtWsCzCngrWgGX1cuB2lQZZBuCmyoKsVJpkm6kVHJh/+FvMCn7R8bQw0Y0yJxvCbz9QC8Y3/CcLwHudB7SJDtRR4a73BfwMQcGqCh1QcH4FfPToUbU/LwsT/aLjGWrGCpZfyUoWQdYk24x8C3jhwoV5GzBKlRPzMeCtW7eqB9xPKLgpK7iozLkGMmrR+RnwyZMnIwH4/xhw0WKyAadTclKyMNHTaU8+DbIiAHgmveS4Blj2NVkAPJEB78+XUfTu3btVK3gmvcyAGyuLor9mwL/mS8ALFiyIBOBnRRStAjBuJ5xCX9um0s/O/An4l19+iQTg56i5EsDuCf+vbNME4H35UsGoYSguVcJEa8DhFo9COV454P4CcLPoJlSU7/gu75osI036ik20VnAogyKkfb1LlTOpv+N5YaKbKAmyEEVrwAqvyZodB8AvKAOMIOtL22TarX1wSKIMaWdPBQPwKwy4qRIFA/AXDPgXHWSFRC2EnTXgEDpLwq5Kg6zZcbMyFYwgq6jUn9VxzwcnawWrvC7aDfhFaqEsyHL74F3OvdpES7AO3KS3iZ5FAxwArMIHuytZn9smkgYsi65o1wz4VUc/RYDdlazPbZNop3OPVrAsxhqwrJ4Nrl3lQZZbwc2UVbJgorWCgxsMudrLV8Ev0Z3RzZTkwahkacBKK1mz6DXHy8oAo9Dxme1r2uH8WfvgXMkziIM8FTxH5MFuwM2VKBiAP7V9pQEHwSnXu2jAue46Sw5UGmS5FdyfTbT8SpY7TdIKVuiDAXigA4DVmGgEWRqwUsCzswBjwl/u/aLTxGWz8MFf0nbnbh1kWWLw/TTi7YNn0+uOV1jB8q+LdgP+r+0LDdgPF8tWmQG/4RigCLD7wncA/sm5SyvYMqKmhvwBbhndQlma9Intcw3YxMTStxqwpd0ZcmOK06TZBBMNBbt9sNyrKhFFawUrjqL/6XhVKeD/sIneqX1wyNoP8gCziX7T8ZpiwJ/Rj04NOEhcoe/mCXhu3Gz6pwDcKvpOZUHWBBsA79AKDh1dcEdowMH1k6y9lAZZc+PmkNtE38kT/ioqWRNsn+Y7BZ85c4bWrl1LN910k9ovn7kBD2QTraqSBcDbnNvzlYn+7bffaNSoUXTHHXeoB/yW43VFgN2VrPG2/+Y7wMePH6eZM2dSqVKlIgO4dXRLZUHWeNsn9EM+U/DFixfphx9+oOuvv14DlhXcRLLdjIwMvlwZMY7yIGuQ4w1holsqC7LcCv4pX/lgz8GlHnDMP6l1FADLvo2Se7pwnO0/wkRbCxgKSUpKoqtXr/ID77EULFiQihcvzqaxUKFC/N6zs7N7jTZSUlIoMTGRkpOTKU38qAjWQYVot0SJEtx2kSJFqECBAtk15bVNOeC3GXArRYCTaZz9E9oa/6OlCr58+TLt2LGDfvrpJ9q2bRtdunSJYdx+++3UqFEj6tSpE0ewt9xyi1dnB3oDkID666+/0nfffUf79+8nBEoYRIULF+Z0p127dtSyZUuqUqUK3XDDDYGa8lmvHPC/Yt7MVHAx6Xe6Q6eNFQq2EvCFCxfo8OHDtHTpUtq7dy+dO3cuq1PT09OpXLlyVL9+fYbcuHFjgpKzUxymAhISEmjXrl08aH788Ue6cuUKwwV4qLdo0aLUtm1batWqFdWuXZtKliyZ9ZnZvYA1UAx4Lv0rU8HF2ETLm01KFT+r4wY8wVLAALFx40aaPHkym83777+fqlatykrD+u3btxNuXzRw4EB68sknWW1QYaAFg+LgwYM0btw4VjBMcPv27alZs2asXFQCMagA9bbbbqNKlSqxCwjUnuf6Y8eOacCeHRLM6/nz59OKFSsIt+qtV68e9e7dm/NNKO3QoUPkdDpp0qRJ9PDDD9ODDz5IDRo0oOxMNY6BmZ86dSoPmO7du1OtWrWoQoUKVKxYMcIAgK+HJcD7G2+8kQdTMOf6/fffRwZwmyjDB8tTMO6yk8QmegJtWbGNYmJi2GwiCPJcjHKp8ey5zfwa5nTMmDEUFxdHderUoaioKOrVq1dWh2M7buFrt9upYcOG1KFDB+rRowerztyW8R4lxTVr1rBVaNKkCb3xxhts0mGeYdoBFiYacPEcyoLzVGqi58XBRL9JbaIBWK4PZhMtJvzH2ibQ5uVbafTo0dzh6ChPmOhEqA+P7HwlOhwPwANEgO3atSv7RkAwFsCaMGECQ69evTo99dRTrEhju/l5+vTptHz5cva7qDxh4Bw5coROnz7NUTOUDL/bvHlzqlmzJp+75/mb2/N8P2vWrEgAfksAbi1GJNIkeQqG78IVHTG28bR63jr2hzCp8Ieen3vzzTdT+fLl2SSigwMtSFsQ1b799tu0ZMkS6t+/P3Xr1o0DKgwOY9m8eTNNmzaNTp06xab51Vdf5X2M7eZn+F6YfQwumN/SpUtzqoTPwnnCJ2NQwlq0adOGgzikTMEsU6ZMUQ/4nZhBigAjD04ihwA8679z2L+Z4aKTAB2g7r77brrzzjsD9hv8IEqAgwcPppUrV9Kbb77JCoZKPZUPfzpvnvhRapHywKQOGjSIEE0HWkaMGME++/z58wwPSkW0jMDt7NmzhAEDU4vAC5BxnphECGaZOHFiXgecLACPo+Uz4umee+6hypUrZ/lLo4PKlCnDJhCBTcWKFY3VPs8AjGgWgFetWsXgoqOjqVq1al6AkeZAkUihABiKzw7wsGHDGDBya4CFSUebsCZIl3DXdgCGomGuBwwYwGbc5wT9rIgY4LuEiVZx0V2SMNEAvHn5Fho5cmRAHwwfavhhP/3EqwAY+eq7776bpWAArlGjhhdgKHju3LlcrIBphYJR/Ai0DB8+nCNouIAHHniAhg4dyibZcCMYKPDry5YtIwwCBHnZWRrPz4kIYFvM2+QGrCbIYsArtpDD4aCOHTt6dR46Ax3p+fDsIM/XAIC8GopcvHgx+2AEWUiDzD4YKc+ff/5Jt956KysOhY9Ay8cff0xz5szhc7jvvvt4QMDvGsthUVSBVZgkUi9Ut+CzW7du7fWZxr7m54gAtsf8SwBuI13BRpD1sW0sfR+/NexSJVIg5KQw0Yiie/bsSVAwfKMRRWMfqG38+PFsnhH19u3bl6Nfc+cb77/66is2wTD/aA8DyAwYVgGFlT/++IMBw5R7DiqjLfMzzkVxmjSP3lUEmPNg4bcAeHP8lrABG51n5MHw2Qh6UNAwKlUAjLus22w2Qk4Li4HCRXa+Hf4V5hd1beTN8Mnw3Z4mGrkyUimYaKR7LVq0ME4n22eOxMVJKfuB6HlxagEjTfrIFmMpYKg3Pj6ecFlM3bp1uZKFSQYo6sCBA+yfkSY9+uij9NBDD3GUjugbKoQyYbYRuSM9w4LS54YNGzi1QsDXp08fzpvRJoCiGoVBA+uBMmW/fv04KMyWrMfGPK1gGYB//vlnnvGBn4XSEJ1DoVAxUhpsB3xEu4899hjXorEephj5K9IqgK8iZoWwAD5+PAPKRFqEQgeCKETSmMjYsmUL+3wjTercuTOVLVuWj83pPwyKCAB+h9oKH4wIU+avrhgm2moFI5JGpQlmFWBOnDjB6kJnIx+GymCeMb2HciWUDRM7duxYho2qFCYhABoLYgVUrTBRAZXv3LmT54KxDYMGU4NQO/wzgisUQrjvsEMOC3JrpYDns4kG4LukB1megDfFf2+ZD0afwnQCLmBg9gjvUcZE7oqIGXAxbWiYYeyzaNEiBoOqWZcuXXi7wQfROSpfMNeYD0YEjqk+XFMF6wBVY9CYiyrG8YGelf+sDgAPjrEpBTzG5iCrASNswdUXUB+eARcL1ArVwXTjtVHhwj7IoxE4YT0UiGdjQXswpxz5C9h4jXXYHxE62oT/NqJ147icnhEvKFewSsDwwaNtH1sOOKeO/atsR5FEA/6r0JBwHjD9ygEPibGziVYTZCXTGKHg7+I3W+qDJbCQ0mREfPCQmHepXXRbBUFWqijQw0R/lG8Bb9q0SbWC59N7ygC7528B+Nv4TflSwahhKzbR8+n9mMGKFOwGPMo2Jt8CVv7zsvPjrgGGDzbqrTIckDHZMNI2Ot8CRr9GTMEasIxh7dtmRAC3j24ngiy5Ck4TRQjMpoxkE/1dvvTBEVHwBzFDhA9ux9Uc+SYagEfTxngN2FfbFq2BL4SSMFEeyz74PYKC3Sbaog/x04z7stkk+tA2SgP20z+WrTID/iDGE7D8y2YBeEP8t9pEW0bU1JAGbOoQxW+VBlkw0R/EvE8dsky0XAXDNeRHBRvfVsQFBsoBD435QCngf7OJ3pivTPS+ffv48l7MJSsGHEvDWMHtOcgSlQ5pBsudJiXTCNuHwgfnL8C4bAhfmYkQYCjYDVh+muQG/E38hnylYADG95PxfeIIKFgDlma2MhvGLSDwnSflXwCPjYul4TFDlSkYQRZMdH5TMCYZYmNj+Vpr5QoeETNMMeB/0/p8ZqJxJQcu3MPFfhEB3DG6g7Iga7hthAD8Tb7ywbgI0LhSUyngBcJEj4gZLhTsBqwiyBpmG57vAHv6eA3Yszfy4OsIAB5BhomWrWAEWcPYRK/PVybac5wqB/zvGAD2/Z6u50lZ8dqogcNEr4vXgK3oU79tGB2N6cIFcQsIgDtlAfZ7iCUrMV0IBQ+1DdOALenRAI2YAX/IgDuJKPrad2ADHBrWak/Aa+PXaRMdVm9mc7Av4H+zgosXKy6zFC2+55NGV5OusoI14GwAhbvJDHhkDABDwXKvyTI+9wPbUNKAw6WYzfFGRxs+WAPOprMkbFIcRS+gkWM/pM5RQsHFhYIlfgM8NU1cC3Y1id5nBbu/gN1J3MdZtuWQwCisJpUDHjV2JHVWaKLff+cDWhOvAYc1SrI72GyiR48dxT5YfpCVKoIsoWAGvEZH0dlBCmebP8CdoztLN5XG5773zvtCwRpwOAyzPdboaCPIgoI14Gy7zNKNSn3wQlHJGj12tGLA79FqrWBLB41XY54KXhi3kAF3UWiih7wDwKu1D/aiYuEbM+AxY8cQACPIkpgl8R1rUIse8s4QWpWPAeN2PVIXcQshl7gQ2/Xaa6+5qlSt4pq/aJ7rfOI519WMRFeS66q0x6WUBNfphD9d/fr3c4mbgrrEjctc4t5TLnG1g9S/96/WuAb8VyNi8flEAPB8oeDzrqQMqFfev8spl4SCT2sFWzxgfJozm+jYRbGuC4kXBOAkV7LEf5dTLrvOJJxxvdT/JW2ifahYuMIMeIEAfFEATslIdqVI/Hcl5YrrrAbsUm6iATgh8SIDThWAZT0SBeBzCWe1gi0Uq9+m/ClYA/bbVVJWKlVwVZEmLVy0wHUpMcGVmpHiShP6lfW4mpLoOp9wzvWy9sFSBk5Wo54Krlq1qgC80HU58ZIrLSPVlS7wynokpVx1XUg4LwC/rIOsLBoSXpgBxy2KE4Avu9Iz0l0ZAq+sR3JKkgB8wSV+gk4DlsA1q0l/gMUvemUCzhCA5fxLTkl2id9D0ICzSEh6YQa8KC7OlSgAZ6Snu0TdUNojJTnZlaABq02T4IM1YElKCtCs4ihaMeAL2gerB7xwoSvx0iVXRlqaywUzLemRkpTkSjh/3tX/ZR1FBxC3Nau9fHCVKq5FCxa4rojpwwwxjehKTZX2SBFTgxfPndOArcEYuBUz4LjYWNcVEfykiyAIkGU9kkUgd/HsWVf/l/L3ZMP/AwAA//9Z7yyuAAArUUlEQVTtnQeYFMXWhg+Sc46Sc0YUEBA2kAQBFVGvBMWsXPGC4QdUJAhLEoF7DYgJMF5UkggCu2xAclZyDgKSc9hlgfnPVzO99EzPLDOzXTV3mernmWdnerpreuut75xTp6qrySF5u3r1quP8+fOOfv36OSpVrOiYM3Om49K5c47rKSmOG/ydrFfKpUuOc6dOOfr885+OatWqOebPn++4fPmy48aNG5L/4/+t4kn25YQU8MmTGrBywDNmOC6dOeO4npzsuAEVS3qlXLzoOHfihKNP795hreAsAEwSt9TUVEpOTqbBgwfTnNmzaeK4cdS6VSvKnSsXZcmSRdov43ev8O8OGjKEFsbF0b///W+KioqiXJJ/V9o/FGTBygFPeP99asOAZVe00bDeYcCLFi/WgINsILc8zahoQ8Ea8C2rzNYDbm8FX7lC7wwdGrYKTklJIfWAx46lNtHRlCt3buk+OBmAhw0LW8B//PGHYsCzZtEEA7DkYMdwDQJwfHxY+uCEhIQQAB4zxqlgVYDfe48WhSng33//PQwAw0RzSw7HbtLBgwdvd8DwwazgMAWMcFxtkAUfPGY0tRYJBwVBVvIVGvTecA3Y1o6XR2FGsCP6wQA8epQLsPxMFjJog4YDcGJYmehLly7Rrl27nMkkpalKAB41UjHgEbQoMbwA79u3jyZOnEilS5cOgYkG4MhIZanKQSMAOCmsFIzg6osvvqASJUqEAPBIAI5QA5gzOeEI+MSJExQbG0uFChXSgD1ChtviI1KUx44do+zZs6sGPJMmCAW7TLTE6ky9dk0MUw4aEUOLksLLRJurVW03aSYAx1Ar+OCcOeXmohlwCqLoGABeElY+OKSAx8eMoNYR6nzwuzEjadGS8AIMH7xgwQL6+++/1Zro2VAwR7WtI1qqC7LYJcQu+T2sFLx9+3YaOHAgbdiwQQM2m7Pb5T2U+/PPP5PyXLRTwcNvmmiJNZoWZI0aFXYKvnjxIkHF586dC4GCh7/nBKwgyBKpylGjKZaHzcJpNInnfhNPVyb8VRpFCwW/N4xatzSCLHkSTk3lblIKR9GjAXhpWAHGRNlr3IvArFXFgGfQBB6+a91SVZAFwGModml4AUaiA5G08kTH7JkasDybdbPk/fv304cffkilSpVSrOAZDJhNdCtWcO5cPB5885psf4cg6wqPB7/LU4Rily4LKxO9Z88eGsP/d5kyZdQDHs9TaISJVhRkCcDLwgswouf169dT3rx5QwCY5ym3btFCWaLjXZ7FGRtmgBFBnzp1KgQ+mE30eL6VRDng5cvDykSb/Z3aKFoDNte9kvehBSzxXzQyWe/yzW6xWsHyato86W42FMy3kQoTrSrIAuAVK7SJloXYAvjdd6nVffeJ+4M51SLrZ+ka7g/mDv9gvh9ZA5ZWzURugHmE4wMG3JoBK7k/2AC8cqVWsCzGXgE3b64O8AcfUKwGLAuvDwUDsAofDAVrwOrW6JhtmGgNWJ6iPEpW200C4EGDqLVKwOPHh52JxlAhr00m4h/1gN95Rx1grO4zYQLFrloVVkEWZnTs2LFDQFYP+O23qZUCBV+7huWb2AcD8OrVYQV47969NJ4t19atWxUPNsBEA3CzZhxFS54XzTM6MPAdzoC3bdumAXvEJLfFR16Tk3CHIUy1ehP91ltsolnBKrpJMNF8G2VcmJno69ev0xVeYUjMy1J5f/Dsn3+iDwAYJloJYA6yeAnDuNVrwsoHm82QWgX/BMAD1QDGGpnwwf/+D8Wt0YDN0G1975aqNAA3bapGwQIwK3jNWq1gW6maCtOATZURgrfqTfTAAdRKqYLZRK+1V8G4Y2I/T01FpIo+JwIaTDbPnz8/VaxYkerUqUNFihQRk96CYYp7i1A+bh5DoFSyZEm6++67iVeuD7g49YAH9FcHGJksnh8ct3adbSYaFX78+HFazEsUL+UJ9St5pOrChQviNpFixYpR48aNqVOnTgJy+fLl6Y477vAbChoJbjdBmSj/+++/F7eg1K1bl1566SXq2LGj32UZB6oH3P//KFqBgjHgL4KsDz+iuHX2AYZioazp06cT+pu1atWiokWLUtasWcXSRZjNCIU/9dRT9MADD1BuXnQ1W7ZsRn2n+xfnobF8/fXXxM+YoNOnT4thVSym8uKLL2YiwPfeqyTIEpksBhzLJnoCpywjvazuI+7fwT08rle6BPjLOF49Hi+ot0KFCtSjRw+68847BcSNGzcSFgD99ddf6YUXXqBu3boRVJwvX75bFStM/F9//UVGGVgpFg0Dt5/ghfIyj4IVA17E3STM9G+JOyo8ljGGCYX6UJn4e6vtk08+oblz51LhwoWpBc/v7t69e9rkBfji2fzYgmE8uT+CVzFo164dRfPSybjD4FYbTHM8L5o6adIk4cdhFXB/79mzZ4VFyDSAx/3fm9RKEWCY6CEffUTTF8WKyobiPM0l7t+pUaMG1axZk8qVK+eTg+Efh/PKeYDYunVratOmDbVt2zatTByzcOFCep8n+sEf169fn5544gmqUqWKz3LxBVamw+gPrMJvv/0mlIprAvADBw4IV5BJAP9I495UCJh92pCPP6HPeJADZlLcbcem2LzBh0Jp999/PzVq1Mj8ldt7pP8QYPXv35/mzJlDL7/8sjivQYMGbspfzlN0p02bRmfOnKHixYvTK6+8QrVr13Yry/wB5SJqRqPZuXOnuGm7Z8+ewrdPnTpVjAjB12cOwD8C8BtqFOwKsoawSZ3Fq+wg6AHMHDlyuK3uU7BgQeFD4UehOl8b/DmS9+/weDYWOHnjjTeEgqE0c6S8ht0BAjB0odCo3uQGXa9ePV/F0tGjR2nz5s0isEI3q3PnziICR0yQeQE3aeIMsnz+2xn/Qkx8h4n+ZBIt4igaZhN+0XM2p+GD4X/NoDyvAP4V/hCLqiLIGjBggABcuXJlt/Nw09cMnv+NobqcOXOKxVCgcs8N5hzqheLx+vPPP0VDQLQM0OiKZU7Ab7xO0YoAp/BNWFBw3IaNIorGc5MQZJk3KAWb8df8nfm93YBh7mEVsLREEi/UBl/enCdCoB+NOOHw4cOZHLCHqTRXph3voWAz4Iyu0YE79uAL3+YJC+ij8rMYBRSYfbPyV/PQJBIUhw4dogIFCtDrr79OSFR4bgis0M8dzUtMoFsFlVfkLBiyVmhsmFO1ji0PlIx0L8A341E4NFIEg7g11J9NbaIDPthQsArAMNHc7YCCMwoY3RiYVJhmBETPPvusAIzAzNy9wnMSsNIrFA+/jgwUInTPDUHYkSNHxHXN5PXDANVsRfB7SHxA6djgWtCY0MAAGt0o8/Ge5Ruf1QN+/TWK5taoYjwYJnDIpE8pjhMQGQUMn4nXKF6WCVF0E3Yz6CYhLWl0vfD9vHnzaAQv9gY1QnVdu3YV740KN/4CHoK2tZyEQRfJExZu4l7FkwURhEHBgHof3xGCv+hX58mTxygq3b/qAb/W7ybgdC8tY1+mstrQDx76KQD/kWHAxtWgCwSIUBbUi0QHTDEAnTx5UphbLMbdoUMH0Z+9l/v86J7BZEPpAAMzjAAMZcAUw1x7bsZiZli5HY0B/Wl055Bgwblmq+F5rvmzYsDT6X32Xa0MBZuvxOb3IopGkPXpZFrMab+MKti4PAwEIAEBswpQ6LNCrYCIRAVeS3htzL59+4quGfrCmzZtoh/ZPQEuUpft27cX5huKhynGy3NDkIWcNGZGwtzDJSBVCX9v9vme53l+Dh1gBT44WQJgKAuVPosfTwDziS4NwKHSsXQRlIyFuB966CHRLYPaABwpTgRG1atXF2pE9yq9DYqfmvkSHSYFqwAMHzz5M1sVDCjoDxtKxeACPkOF8I3wk126dKFKlSqJJfVxPI4JFDAa0g8//CCyW1AwLAW6UoFuahXMGZ73+/WlVuy7VARZIhcNwJxEsMtEo4LRZYK/RRfG6MbA3KKPjWxY2bJlhVoR+WLDMfClCMageH9GmAAVgw3w0Yje4QaQNw90Uw+4779MgAO9XP+PT73mDLKGfAbAm2wF7P9VhP5I9YD/9S+KbnSPS8HyKkAkOlI4yPrsc1rMQY6dCpZ31faXHALArzJgmGj3pL/d/1o4A0YfGlkwZMpub8B8Z8OQz78IOwVjDPlT7v9j+DEEgPtQ9D2Gic5it3DTynMq2AC8OaxMNKb+fPnll7R79+4QAH71lZuA03DY/yYtk/XFl6zg8AKM/jiGNNHVUqzg/9L7faDgu51Blv1c00o0MllDAXjzlrBSMLpVyHMjFRoCwC4Fq0h0cH81HAGntXJ+c3sDxmDDl1+FnYJDB/i/MNH/pGi+DUNVJksA3rI1rEx0aAG/0vsmYIlrvqdex0M5WMFfTaHFGrCZub3v3e4uhIL/2Zui7m7oCrIkd5OuugBv3aYVbC/Wm6VZAb9MUQ0ZcA7Ji7BwBJkCwFOm0mIN+CYQu99ZAPc2ACtIVSKK5jFVDdhuqqbyNGBTZYTgrdpuEvvgsazg6IZ3OU20xH9YZLLYRA+bMo0W8yR0PZokqbLNCp6FIOvllxgwfDCbaEm/iWKdgJ0mOn7bdg1YVl27A/6B3ud5wtF3QcGSfTBmVQofPI3i+UmcWsGSCLsB5jlGTsAN5APmKFoA5pmJ8dt3aMCS+Lot6T9LA5ZVzT7LVRpkOQG/eNNE+7ysjH+R5oO1gnk6oMTNYqJffIGiDB8s83fZB+Pms6Fff0PxfGuI9sGSKtsC+IXnGbDLB0uMo6FgAfgbAN6pAUvia/XBzwNwfSVBlhPwdxTPc5O0giURtihYA5ZU096LVR9kPf8cRfHNzmLarPdrsmWvMNE8L3rot9+ygndpBdtSq14KcVfw9/T+c4oA850NwkR/yyaabxvRJtoLHDt2eQIey7dBRjdQ4YOdmaxh3wHwbg3YDpjeynADzGtXjH2OAdevpyTIQiZr2Pc/aMDewNi1TwO2qyaDK0dtkCUU/Awr2GWig7tmv84yMlnDvmMF8wx/7YP9qrbAD7Io+Nmn1QKGid69JywB455l9Qp+phdF89J+GC7k9Q4CbzF+nnHNNVwofPCevWEJ+NixYyEA/HQviqpXV0mQhW7SsP9Op/gwBYxbSBUr+Dsa2ysEgPfuC0sFY9HUEAB+iqJ4aT/pMzrEtFlW8PQfKT5MAWPVWw3YT5+eGQ/DOlvqAfO6zcIHZ89uWb7Pzko0hgvDWcFYZ0stYE4bju31pNNEKwP8E8Xz4tzh2A+eMmVKCAA/1VMNYEy640U83/sRgPdrwHaaR3NZbokOVvCYJ3tSdN06lEuBgkUu+qefKSFMAasPsjRgc9uX/h6Lpir3wWOe7EHR/Gy/XDmy8z8oOZOVyt2kH1nB+w+EpYnez88/VA+4Z3eKcgH2XATbziaNpQxFJuvnGWELGPWpGPC3NIYfBRdVp7ZQsFzAuD84lYYB8IGDYangEAFmBfODomCi5QJ2KXjGTA3YTtPoWZZ7FA0Fa8CedSTzs3oT3b2b00Qr6CYJHzxjllawzBZkUXD3J5wmWiXgg39pHywLshtgnqM8RgCuxYkO3B8s61f5BnBE0egmzWQFHzykAcuqagvgbv9gBRuA5RHGOlnCRM+arQHLgotyNWCZtXvrstUGWTDRUDA/ok1VLvo9KPgvbaJv3RSCPMKi4CceVwt49hwNOEh2fp1mAfyPxyhSgYKxVrIYLgTgQ4d1kOUXrSAOcgf8DY15nAHz0zhVLKOUgvHg2b9QAj8mLhwH/IFLrQ/mu+2dgGuoAzwHgJ2PccWzdz2fAB5Em81Up4QA8KNOBStKdLz3y1wNWGaTdDPRQsEasMz69ixbvYIfA2CYaB5NkjjgL2ZVwgdrBStcRgkKfqwrRdYwAHu2N/s+p16/walKF+Ajf+sgy76qdS/JYqIffUQRYOSir9F7c3+lBA3YHYqdn3wCzp5N7oC/WCeLFTx3HiXwA6J0N8lOqqayNGBTZYTgrfogq2sXNtHVleSihQ8WCj6qFSyrcbkr+GsazYCj+Dn2YrBB1o9yuan8yHWkKof/ChN9TAOWVdcWwI88rAYw7vDnfPTwX+dTwlENWBZf9/Hgb1jBXRgwTDQ/z17qrEoAhoLn/aYBS6MLU8mVnJycTIMHD6ZZGrDMqvZattogi29IHt3lITbR1Sin5Fy0WIQFCp4PBR/XPtgrfht2uilYAH6QIqtVUxJkIYoePn8BJRzTgG1A6b0IC+CHO6sBjEQHgiwAPn5CK9g7nozvtQB+iAGziVYRZAkF/7ZQA844Rt8laMC+60bFN4qDrGk0GgquVtXlg2XOi8ZgA/vgBVDwSW2iZbUmdwUz4Ac7KQa8iBJOaMCy+Lr3g79mwJ0ZcNUqyuZkDV8IwKe0gmURdlPwNADu6AKsZkbH8IWxlHBSA5bF113BAvADTsDZJN8Ajm4S33w2fFEcAz6tFSyLsFXBGrCsuvZWrtoo2lBwFfbBSFV6uyKb9qXecA02sIITtYJtqlUvxXgqeFSnBygKQRZGk7wcb9cuMR58jbtJGrDCWZWs4FEdO1BUlcoKFOwa8I9dTImntA+2SziWciwK7tieIiurASwSHXEAfEYHWRYyNu3QgG2qyCCLUR5kjXqAFQwTrWBGhxhN0gpW6YOn0qgOLsCYFx1kq/TnNHFnA4YL4+Ip8bQ20f7UWVDHuJtoBtz+flZwJflBFm5dQRQdl0CJZ85qHxwUPT9OcgPMS8yP6tCOgyxFgDGaFJ+oAfvBKehDNOCgq86WE9UGWVBwe0PB8qfN4uaz4fEw0ee0ibaluXgpxKLg9m2dJlpBJktE0cJEa8Be0NizywL4/jYUWami/CCLb10RiY6EJEo8e14r2B6c1lLcAU+hUe0UA05cogFbsdi3RwO2ry6DKUlxkGVSsKpMVgIr+Jw20cE0Dr/OsSi4bWunD1YVZMFEn7ugfbBftII4yAK4TaubgCUuGC0e8c6JjhFJv1Pi+YsacBDs/DrFDTA/S29km2iKqsRRtAITjdtHRyxZqgH7RSrIgyyAWzPgiuWV3V0oAF+4pBUcJL9bnmYFHEWRFSvI7weLWZWs4N+XUaIGfEtOQR+gAQdddbacqLabBB/cmhVcobx8BbsyWVrBDoUD/mbAirpJGrBSwF/RyFYuBWfNKncRFiiYZ3SM+H05JV7UQZYt9t5bIe4+2AW4fDkl86IF4KUAfNnWKBqPCzhz5ox4nT59mvAZOsmZMycVKlSISpYsSblz56YcOXJ4qxK3fefOnSO8zp8/T5cvX6arV6+KsrKyAIzyihUr5nd5boXzB8U++PYADCCrV6+m5cuX09KlSwWg6xy1lypViu69917q1KkTlS9fngDmVtuGDRto3bp1tHHjRsLzfo8fP57WWMqUKUONGzemNm3aULly5fwqz/P31AOOjqRIQ8ESZ90Zk+5GLFthq4IBYMeOHTRnzhw6ePAgGUrDml8AnydPHipdujQ98MAD1KxZM6HiO+64w7Pe0z7Pnz8/rZHA2uFYvNBgzp49Kx5BUKJECerQoQM1bdpUqBq/6e+mHnBUhHrAl67QxIkTKYqf2QDT6bkFsiDb2rVrKSEhgb7jx9UXLVqUevbsSZV5Ij/McWJiIi1btoxWrVpFb775Jj3zzDPCZKdnqn/44QdhCVBGpUqVxAvHA25cXJwoD9aif//+1KtXLypSpIiA7Pk/+PqsFvBXbKKjWroASw6yxKxKDrKWr6R4TnSMGzeOIiIiLA/lAFwoAq/0lGZUIMBCdRcuXKCGDRtS9+7dBUSce/ToUfHdxx9/TJ07dxavRo0apWta9+3bRydOnKB8+fJR/vz5xV+UBV985MgRYSmwFPJTTz1Fjz32GNXmZy/Dz/u7hQZwubLcD5Y8L1r0g52A5/Ed/i+++CLVr19fKM2sWFQqTCBehQsX9llvRmdj9OjRotIBF77xwQcfpOx8pyQ2HDN37lwaNmwYVeO1wGBSu3TpQhUqVPBZrq8vUBbMNBrUa6+9Rl27dhVlNWnSJN0G41leWACeunW7qBSYZ0+V1uDHC0RHR1OrVq2EIj0ryPh8gxsMKvytt96i2bNn05NPPknt2rUjVLjZJy5ZsoQmT54sbnxHoPX8889TTX5OVKAbfi8lJUUAfuONN6hHjx5CwQ0aNBBm2t/y1AOObMEmmhWsKtGxfBX9dOAvYZ7vvPNOysa/a94QqdatW5fq1Kkj/J/5O/N7BEDoxrz99ts0b9486tu3L7Vt21aYTHOjgf/9/vvv6TA/jAumtF+/fqJ8c1n+vIcL2LRpk7AIU3k2au/evalbt26E/wGBnL9bCADfR5Ew0aoAr1hF8Rev0JgxY6hly5YWHww4gI6XWYmeFXjlyhUR+GBRVQQ/AwYMECYawZEZ8Pr162nGjBm0bds2EQwNHDiQoLpANvSrDx06RAjA0GD27NkjgjYAxnWaf+9W5SoG/CWNjHABzop50be6vOC/xw3gItGxYjUlXE6m8ePHU2RkpAUw/DFeqDSzb/b8ZZWAodyVK1cK9eJJbWiYCBDr1asnrjG96/S8bvWAWwLwnaxg2Us4ADAPF65cQ4lXUjKcycKSyBcvXqRBgwbRggULhKIQZFXn1evNikI3avr06bR3717KmzevOA7BnT/bpUuXRHZs4cKFouv0Nz9MBMEcukfIjhUsWNCfYtyO0YDdqsP3BwRY6LrANP/yyy/CJyLIAjyzaV+xYgVN45UMTp06RcWLF6c+ffoIP+275Jvf7Nq1S/R70Q2DiX788cepRYsWIj5A39j8OzfPSv9dCAA3p8iyLh8s00S77i4UCk6+mmEFo9uCyBZdIETR7du3Fz4Y0bcRuOGY2NhY4Q6gNgRu6CdXrVo1XQow/0hTwizDOqDbhdQk+tKIwNF9C8Qsm39MPeAWzRgwTLSCe5MwmrRqLSXaANiotP/85z9CwYi+4dMR+GBQABsi7VmzZgkzjjQlTDgibeSo8R0g4WUOlGAZjh07JsAuXrxYZMnQtUJSo2LFiiLxYfw2/gYKWj3g+xgwfDDyqfzPytqusdrwUI4Rq9ZQUnJqhhVsXCcUBpVigAARNPqnyD3DfG7evJni4+MF5KefflqY2Cq8ZBQyUklJSaIhIKGCAQRjIALnIFJG1wuNAP1yBFWIvJHdMqwDVI2XuXEY15TeX7WAv+QoukVTioCCuUICbY3p/SOe34mHU7I6oOCkFPsAw08ikEIXBt0ZpCIBDYC3bNki+r8YSnzuuefooYceEn1WjDp99tlnIugCcKgTeWds6FLB5COPjUCqY8eOVJZdGPLc5g1WAC80Jm/5dPOx5vfqAd93L0XcWUZNPxiAVwPwNdsUjOwSottFixYJ5aFLgwQI/G+BAgVE0GVkxQATETb6zRMmTBCKhE9FXtnwy+ifT+GZLgiqUAaSI4ZSzaDgDlAuXoDs73Z7A4aJXrPOVsCoWABF8mHnzp1i6BBBEgIwwAFUdG1ggpHnxobhRZhoRMJQqdlEo6EguEIXCf7Y14aGgYGG/+3BBpholQqWBNgXhP/F/eoV3LyJy0SzD5a4zo7IZAkTzQq+ap+J/l+EmN41KQb8BY1sDh9cWkGQxZksAF6zXgNOrwVk9DuE/mlPPvuSATdjBZdhwNmgYHlb6g3HTcCp120LsuRdsZyS1Su4KUy0CsDIRbOC126gJA1YTutBqRYFa8DyKttLySFQcGOniRaJDi9XZNOutCBLKPiGNtE21aulGIuC721kAizPC2PFdxFkrdvIJloDtoCxa4cFcJN7GHApdZksAL7m0Aq2C6hnOW6Av+Ao+l6FgJHoWP+HBuwJxc7PGrCdtRl4WWqDLCi4yd1OEy17NEnMyeJuEhR8XZvowJuGn2e4K/hzBswmunRJ+ZksA/CGPzVgP1kFdZgFcGNWMACryGQh0bERgEkHWUHR8+Ok0AF2ZbI2btKA/eAU9CEacNBVZ8uJioMs9sGNGpp8sC3/g9dCnBPfYaJZwTeyaBPttZZs2GlR8D13mQBLzmTBB/+xWQO2gaPPIqyAG1BEqRIcRUu+fdTh8sEA7LhDK9gnoQx+YQF8d/2bgOUJmNJM9J9bNOAMMkz3dDfAn7MPNgBL7ya5FPznVkoireB0IWXkSw04I7WX8XOVRtEzXQqOLFVcSSYrmYOsGK1gnm0tcTMreObnnwkTHVmyBOXMyvfjSvzda/xvCcCbYKKz6iBLVl1bADesRxEMOBcAS7w3yZjREbNpmwYsCy7K9Q7YZaIl/rAb4CzZtIJl1bUGLKtm/StXcZDFPviuumyi1QRZmJMlTLRWsH+tIZijLAq+qw5FlFBgojnIEoA3b6ckDTgYdP6dYwHcAICLubpJ/pURzFHGnQ0xAHxHdu2Dg6lEf86xAq59E7A/BQR5TBrgLXzrpgYcZC36cZoG7EclSTxEfZBV31Cwin7wDYrRClaYyeJ1KkbWr+Uy0XIzWakiyHIBzppD+2BZVsLNRH822Qm4OIIsFQrmbtLWXZSkAcvC65HJAuB6NRUFWTxciH7wNgDOqRUsC7FFwRqwrKr2Wq7aIMtQcPGiSoYLtYJ5rTlem0ndcCEA12UTLQCrCLJgondTUjZtor3K246dFhNdtwZFFIOCFQVZ2wE4l/bBdsD0VoYFcJ3qLgXLXoTFFWRt30NJ2TVgb2xs2WcFXI0VXMTpgyXO6UjFtFlE0QJwbq1gW2h6KcQCuDYDLm4A9nKCTbvSBvx37GUFa8A2Vau1GA3YWicq96iPoqHgYoVdJlrev+pMVbKJ1gpW2U36lEbW5iCrKACr6CZxLhqAc2gTLU1K7iaaAddyKRiPsZH2q5wixWAD3+XvBJxHB1my6toN8GQouKpLwZK7SWI0iU30zn2sYA1YFl/3abMasLR69lWw2iALgGuxghFkiSeN+bqsjO9Pm7Kza79WcMar03cJFhNdswoDLiQ/inYtJxwDwDnzah/sG1HGvrECruz0wSoUjCBLA1bYTYKJrsmAiyhQsBFk7T6gFZwxjaZ/tlcFa8DpV5qN36oPsmpUUmiiuZu0ixWcK5/2wTY2GreiLAoG4CIF5QdZaSb6oAbsRsTmD+6AJ9FIAZh9sKpMFnxwrvxawTZzTSvOAri6YgXvgYI14DQgdr/RgO2u0cDKUxxksYk2FKyiH8wPiY6BgnNrBQfWLAI42qLgahVdQZbk0SSRyWLAe//SgAPgFfChboA/ZQVXq5AGOODCAjgBq+ykQMECcAEdZAVQdwEd6hVw4QLOZZQkrrIjngDOgEfuPURJeTTggKAFcrAn4Jiq5SmyCANW0U2CgvcdpiUacCDIAjvWG+AIVrCyKTv7DjHggtpEB4bN/6M1YP/rSsaRartJHGTFVC1HQsEqTDRH0jFawQqHC5UDNnywNtEyrIMo02qiWcGF8qvLRe8/on2wNLpcsBVwWQbMQZYSE80K1oBVm2gNWKagPMtWHGR9QjFVFJpovsMwZh+b6LyFdDfJk7xdn91NNABDwSp98N8asF0wvZVjAVz5TrWADwBwYa1gb3Ds2KcB21GLwZeh3gdrBQdPK4gzQwO4YD413STuIMTsZxOdT5voINqGf6dYTHSlMop98FEN2D9UwR3lHbAiBWO48CAAF9FBVnD4bn2WV8Aw0aru8NeAVWayuB8ME60B31oZNh2hNsiaBMCl2QcrMtEYLjzAJjq/NtE2tRdrMW4m2gCsQsGYVYnbRw8e04CtWOzbYwFcsZQ6BSPI+uu4BmwfTmtJXgGLfnAWyc8udCn4Lyi4qI6irWjs2eMdcF41iQ6YaKFgDdgeml5K0YC9VIrCXYqj6I8pBj5YmGjJt65w708EWVrBCvvBkwzAiky0CLJO0JIC2kRLMxruJpoBV4CCAVhVkMVRdIFiOsiSRdgKuKQLsCoTDQVrwLL4us+qhImuoAFLq2wvBasPsjRgLxjk7QoN4AIuHyzv/3ItJ8y56EPaRKt7bhJMdHmY6DzOIEviitHO9aI1YPUKLl+CIqDgrBxFy1bwdQA+SUsK6iBLWlVbomgNWFpdeyv49lWwGC7UCg4RYPhgRf1gYaKL60SHN3nbsc9qoos7fTAyWRK9cNpDOTRgxbnocgDMClY16e7wKQ6ytILtEKvXMiwK1oC91pOsnep9sCrAxpwsreAQmWjhg2W1W+PBWBxFa8ChAJxbURStAas30WWLqQ2yjiDIKmF7N+kGz/dysDaMF2xRFl6aEa870AUMcJlGlGMu01yeUW6gZYoyuGC1uWgBmBWsJIpmBUsAfOnSJdqxYwdt3bqVNm/eTPiMaixcuDDVrFmTmjRpQiVLlqQCBQqgjm+5Xblyhfbv30/btm2jDRs20Pnz5+natWvi/KpVq9I999xD5cqVo6JFi96yLM8DQqDgoooVfNpWBQPm4cOHacGCBQLGnj176OrVqwJwzpw5qXr16tS8eXMBGbCzZuVnNKaj5pSUFDp69CjFx8fT2rVracuWLYR9UHP27NmpUqVK1LBhQ2rZsiXVq1ePcuTIISyEJ0hfnzVgXzXjY//27dtp1apV9O233wpwERERVKZMGQFj/fr1BOBHjhyh3r1706OPPkp58+albNmy+SiNRGPBeZMmTRJgodYqVapQ/vz5haJhJQD9pZdeoq5du1KJEiUoV65cPsvz/EIt4E8+omFli1JLJDoUpCqTWQVjjpym39kHf/DBBxQZGSkqx6wovIfP9Ndv/vrrr7Ro0SJhmqHW7t27U6lSpYRSAT8uLo6mT59OTz75JD322GNUrVo1KliwoGe9p31eunQpJSQkiDLLly8vzoM5zpMnDx04cEDs/+6776hTp07UsWNHYRmKFSuWdv6t3igF/DMDfqdMEWqeH1G07FTlDUrmvvCEo2doeYHiNHLkSGrRogXlzp3brU5gQmH2YA7TU5px0vjx42nOnDnCdLZq1Yq6desmzsX3MKszZ86kgQMHUuPGjQnfd+jQgcqWLWucbvk7ZcoUmj9/vjDzUVFR1KdPn7TycPC8efNozJgxQrn169ennj17UuXKlS3l+NohHfD169eF6YmJiaGvPv6IamS5QUV4IDgrK0fmeDDHuMTDwbQ99TqdzJWXGjRoICoJQM0b1AIfhxcCGl8bgij8L0OHDqXZs2cLRbVp04YAxWgYOGbx4sU0ceJEYZrhg6Hk9ModN24czZ07VwRnaBAww0Z5uJZly5bRN998Q8ePHycot1+/flS7dm1fl2nZLx0wWjUiwmnTptFPP/1EFy9eFBPxLFciaQeUCagIhHAtnhsqHwGMEcR4fm98xv+AMgYMGCCAvPLKK9S2bVsR+JgbzYoVK+jrr7+mkydPiqj31VdfpTp16hjFWP4OGjSIfvnlF2F+jQZjLu+PP/4QCoffx4YGdtddd1nK8bVDOmCjF4bA49ixYz4r2tcF2rEffta4Ds/y4OuKFCkiujgIbHxtycnJdOHCBQIQ+OA333yTAAQ+Fv7b2BAJoyHv3r1buIP+/fsTTKuvDeXA5Pfo0UM0mKZNm4oGaRyPrhOsAn7z8uXLwlwjEPN3kw7YuBCYNygIL1+VbRxr51/jt8yBlbl87IdijEDL/J35PfqqZ8+epcGDB4tACkoGYPhDM2BExDNmzBARMLpN8MdwD7621157TQB++umnqV27diKIMpeHwC0xMVH4YjQwmPRGjRr5Ks66nytAb37UAKvHwVbI8fzzzzsqVqzo4G6NY+fOnQ5uuG5nr1u3zvH22287unTp4njiiSccGzdudPve8wMDdnBf1zFs2DAHm3dLeaxg8VscRTu4F+BYs2aNZxHpflamYGvTylx7jGHPt956i9BVgm+F4hDwmH2m0UdG8qJQoULUt29fqlu3rs9/lhuDUPDDDz8sLAL61ebyNm3aJJIqCLYQBwwfPlwEhD4L9PhCA/aoEF8f4VrgZt555x0RRaN7hCCrWbNmbkBgTpG0wMZKp2effZZq1Kjhq1jRfUMUbXSrOnfu7Fbe6tWr6ccff6S9e/dSvnz5CD49vQbj+UMasGeNpPOZbSGNHTtWKA5pw9atWxOb4rR+K75HRDxkyBCqVauWSFk++OCDVKFCBZ+lTp48WUTJyE6hy8UuIK08nBQbGyu6Xei/I7GCBpNet8vzhzRgzxq5xWdkqZCHPnHihIiOoWRE4QiMDh06RL/99ht9/vnnAjzMLgIsdK8QLKF/iwEIBGZGxI7oGNkv9t2iL/zMM8+I/joCNPR98T3KQzcODQqNAJkzfzcN2N+ach3HQZOIaqdOnSp8LFKVyB2jv40Bg5UrVxIiaZhSwAJQ+GVkrNAlA9xHHnkkTdX79u0j9J0RHSOjhkaBbhVGptDlQhpz4cKF9Prrr1OvXr1E3hvl+LtpwP7WlOu4U6dOiQEF+E30dTHyYwRF6CsDDCCiCwW/CvDwyx9++KHwoUb+Go0CG7o+yDmjPAxBnjlzRpwDi4Cy4XcxwICUJ/rIgGvOdLkuy+cfDdhn1fj+AuO1MKncZRHqxGcEYQCBJASCL+SfjfFbKBgDBoADf4yBA6RIjQ3ZPZhwlJeUlCQgI2pHY4GJj46OFn63dOnSxil+/9WA/a6qmwcimgYUqA8vdF+wQa1QHMAYAxjYj2PgT6FKBFPw2fCxxobykEjBcefOnRPlocGgPAw3YjQKQRbKDHTTgAOtsUx2vAacyYAFerkacKA1lsmO14AzGbBAL1cDDrTGMtnxGnAmAxbo5WrAgdZYJjteA85kwAK9XA040BrLZMdrwJkMWKCXqwEHWmOZ7HgNOJMBC/RyNeBAayyTHa8BZzJggV6uBhxojWWy4zXgTAYs0MvVgAOtsUx2vAacyYAFerkacKA1lsmO/3/Brc/OdScnjAAAAABJRU5ErkJggg==;" vertex="1" parent="1">
          <mxGeometry x="136" y="903" width="40.24" height="224" as="geometry" />
        </mxCell>
      </root>
    </mxGraphModel>
  </diagram>
</mxfile>
